# Blender v2.80 (sub 75) OBJ File: ''
# www.blender.org
mtllib base.mtl
o base
v 0.468726 6.321974 -0.466106
v 0.681471 6.321974 0.047502
v 1.341392 8.574849 -1.338772
v 1.915606 8.574849 0.047502
v -0.044883 6.321974 -0.678851
v -0.044883 8.574849 -1.912986
v -0.558491 6.321974 -0.466106
v -1.431157 8.574849 -1.338772
v -0.771236 6.321974 0.047502
v -2.005371 8.574849 0.047502
v -0.558491 6.321974 0.561111
v -1.431157 8.574849 1.433777
v -0.044883 6.321974 0.773855
v -0.044883 8.574849 2.007991
v 0.468726 6.321974 0.561111
v 1.341392 8.574849 1.433777
v 1.615325 8.574849 -1.612705
v 2.303006 8.574849 0.047502
v -0.044883 8.574849 -2.300386
v -1.705090 8.574849 -1.612705
v -2.392771 8.574849 0.047502
v -1.705090 8.574849 1.707710
v -0.044883 8.574849 2.395391
v 1.615325 8.574849 1.707710
v 0.570218 6.321974 -0.567598
v 0.825001 6.321974 0.047502
v -0.044883 6.321974 -0.822381
v -0.659983 6.321974 -0.567598
v -0.914766 6.321974 0.047502
v -0.659983 6.321974 0.662603
v -0.044883 6.321974 0.917387
v 0.570218 6.321974 0.662603
v 0.570218 -0.271955 -0.567598
v 0.825001 -0.271955 0.047502
v 0.468726 -0.271955 -0.466107
v 0.681471 -0.271955 0.047502
v -0.044883 -0.271955 -0.822381
v -0.044883 -0.271955 -0.678851
v -0.659983 -0.271955 -0.567598
v -0.558491 -0.271955 -0.466107
v -0.914766 -0.271955 0.047502
v -0.771236 -0.271955 0.047502
v -0.659983 -0.271955 0.662603
v -0.558491 -0.271955 0.561111
v -0.044883 -0.271955 0.917386
v -0.044883 -0.271955 0.773855
v 0.570218 -0.271955 0.662603
v 0.468726 -0.271955 0.561111
vt 0.125000 1.741190
vt 0.000000 1.741190
vt 0.125000 1.200333
vt 0.000000 1.200333
vt 0.250000 1.741190
vt 0.250000 1.200333
vt 0.375000 1.741190
vt 0.375000 1.200333
vt 0.500000 1.741190
vt 0.500000 1.200333
vt 0.625000 1.741190
vt 0.625000 1.200333
vt 0.750000 1.741190
vt 0.750000 1.200333
vt 0.875000 1.741190
vt 0.875000 1.200333
vt 1.000000 1.741190
vt 1.000000 1.200333
vt 0.125000 0.659476
vt 0.000000 0.659476
vt 0.250000 0.659476
vt 0.375000 0.659476
vt 0.500000 0.659476
vt 0.625000 0.659476
vt 0.750000 0.659476
vt 0.875000 0.659476
vt 1.000000 0.659476
vt 0.125000 0.118620
vt 0.000000 0.118620
vt 0.250000 0.118620
vt 0.375000 0.118620
vt 0.500000 0.118620
vt 0.625000 0.118620
vt 0.750000 0.118620
vt 0.875000 0.118620
vt 1.000000 0.118620
vt 0.125000 0.118620
vt 0.000000 0.118620
vt 0.125000 -0.422237
vt 0.000000 -0.422237
vt 0.250000 0.118620
vt 0.250000 -0.422237
vt 0.375000 0.118620
vt 0.375000 -0.422237
vt 0.500000 0.118620
vt 0.500000 -0.422237
vt 0.625000 0.118620
vt 0.625000 -0.422237
vt 0.750000 0.118620
vt 0.750000 -0.422237
vt 0.875000 0.118620
vt 0.875000 -0.422237
vt 1.000000 0.118620
vt 1.000000 -0.422237
vt 0.000000 -0.422237
vt 0.125000 -0.422237
vt 0.250000 -0.422237
vt 0.375000 -0.422237
vt 0.500000 -0.422237
vt 0.625000 -0.422237
vt 0.750000 -0.422237
vt 0.875000 -0.422237
vt 1.000000 -0.422237
vn -0.8243 0.4516 0.3414
vn -0.3414 0.4516 0.8243
vn 0.3414 0.4516 0.8243
vn 0.8243 0.4516 0.3414
vn 0.8243 0.4516 -0.3414
vn 0.3414 0.4516 -0.8243
vn -0.3414 0.4516 -0.8243
vn -0.8243 0.4516 -0.3414
vn 0.0000 1.0000 0.0000
vn 0.7901 -0.5183 -0.3273
vn 0.3273 -0.5183 -0.7901
vn -0.3273 -0.5183 -0.7901
vn -0.7901 -0.5183 -0.3273
vn -0.7901 -0.5183 0.3273
vn -0.3273 -0.5183 0.7901
vn 0.3273 -0.5183 0.7901
vn 0.7901 -0.5183 0.3273
vn -0.0000 -1.0000 -0.0000
vn 0.9239 0.0000 -0.3827
vn -0.9239 0.0000 0.3827
vn 0.3827 0.0000 -0.9239
vn -0.3827 -0.0000 0.9239
vn -0.3827 0.0000 -0.9239
vn 0.3827 -0.0000 0.9239
vn -0.9239 0.0000 -0.3827
vn 0.9239 -0.0000 0.3827
usemtl lambert3SG
s 1
f 1/1/1 2/2/1 3/3/1
f 3/3/1 2/2/1 4/4/1
f 5/5/2 1/1/2 6/6/2
f 6/6/2 1/1/2 3/3/2
f 7/7/3 5/5/3 8/8/3
f 8/8/3 5/5/3 6/6/3
f 9/9/4 7/7/4 10/10/4
f 10/10/4 7/7/4 8/8/4
f 11/11/5 9/9/5 12/12/5
f 12/12/5 9/9/5 10/10/5
f 13/13/6 11/11/6 14/14/6
f 14/14/6 11/11/6 12/12/6
f 15/15/7 13/13/7 16/16/7
f 16/16/7 13/13/7 14/14/7
f 2/17/8 15/15/8 4/18/8
f 4/18/8 15/15/8 16/16/8
f 3/3/9 4/4/9 17/19/9
f 17/19/9 4/4/9 18/20/9
f 6/6/9 3/3/9 19/21/9
f 19/21/9 3/3/9 17/19/9
f 8/8/9 6/6/9 20/22/9
f 20/22/9 6/6/9 19/21/9
f 10/10/9 8/8/9 21/23/9
f 21/23/9 8/8/9 20/22/9
f 12/12/9 10/10/9 22/24/9
f 22/24/9 10/10/9 21/23/9
f 14/14/9 12/12/9 23/25/9
f 23/25/9 12/12/9 22/24/9
f 16/16/9 14/14/9 24/26/9
f 24/26/9 14/14/9 23/25/9
f 4/18/9 16/16/9 18/27/9
f 18/27/9 16/16/9 24/26/9
f 17/19/10 18/20/10 25/28/10
f 25/28/10 18/20/10 26/29/10
f 19/21/11 17/19/11 27/30/11
f 27/30/11 17/19/11 25/28/11
f 20/22/12 19/21/12 28/31/12
f 28/31/12 19/21/12 27/30/12
f 21/23/13 20/22/13 29/32/13
f 29/32/13 20/22/13 28/31/13
f 22/24/14 21/23/14 30/33/14
f 30/33/14 21/23/14 29/32/14
f 23/25/15 22/24/15 31/34/15
f 31/34/15 22/24/15 30/33/15
f 24/26/16 23/25/16 32/35/16
f 32/35/16 23/25/16 31/34/16
f 18/27/17 24/26/17 26/36/17
f 26/36/17 24/26/17 32/35/17
f 33/37/18 34/38/18 35/39/18
f 35/39/18 34/38/18 36/40/18
f 37/41/18 33/37/18 38/42/18
f 38/42/18 33/37/18 35/39/18
f 39/43/18 37/41/18 40/44/18
f 40/44/18 37/41/18 38/42/18
f 41/45/18 39/43/18 42/46/18
f 42/46/18 39/43/18 40/44/18
f 43/47/18 41/45/18 44/48/18
f 44/48/18 41/45/18 42/46/18
f 45/49/18 43/47/18 46/50/18
f 46/50/18 43/47/18 44/48/18
f 47/51/18 45/49/18 48/52/18
f 48/52/18 45/49/18 46/50/18
f 34/53/18 47/51/18 36/54/18
f 36/54/18 47/51/18 48/52/18
f 25/28/19 26/29/19 33/37/19
f 33/37/19 26/29/19 34/38/19
f 2/55/20 1/56/20 36/40/20
f 36/40/20 1/56/20 35/39/20
f 27/30/21 25/28/21 37/41/21
f 37/41/21 25/28/21 33/37/21
f 1/56/22 5/57/22 35/39/22
f 35/39/22 5/57/22 38/42/22
f 28/31/23 27/30/23 39/43/23
f 39/43/23 27/30/23 37/41/23
f 5/57/24 7/58/24 38/42/24
f 38/42/24 7/58/24 40/44/24
f 29/32/25 28/31/25 41/45/25
f 41/45/25 28/31/25 39/43/25
f 7/58/26 9/59/26 40/44/26
f 40/44/26 9/59/26 42/46/26
f 30/33/20 29/32/20 43/47/20
f 43/47/20 29/32/20 41/45/20
f 9/59/19 11/60/19 42/46/19
f 42/46/19 11/60/19 44/48/19
f 31/34/22 30/33/22 45/49/22
f 45/49/22 30/33/22 43/47/22
f 11/60/21 13/61/21 44/48/21
f 44/48/21 13/61/21 46/50/21
f 32/35/24 31/34/24 47/51/24
f 47/51/24 31/34/24 45/49/24
f 13/61/23 15/62/23 46/50/23
f 46/50/23 15/62/23 48/52/23
f 26/36/26 32/35/26 34/53/26
f 34/53/26 32/35/26 47/51/26
f 15/62/25 2/63/25 48/52/25
f 48/52/25 2/63/25 36/54/25
